<?xml version="1.0" standalone="yes"?>

<svg version="1.1" viewBox="0.0 0.0 960.0 720.0" fill="none" stroke="none" stroke-linecap="square" stroke-miterlimit="10" xmlns="http://www.w3.org/2000/svg" xmlns:xlink="http://www.w3.org/1999/xlink"><clipPath id="p.0"><path d="m0 0l960.0 0l0 720.0l-960.0 0l0 -720.0z" clip-rule="nonzero"></path></clipPath><g clip-path="url(#p.0)"><path fill="#000000" fill-opacity="0.0" d="m0 0l960.0 0l0 720.0l-960.0 0z" fill-rule="evenodd"></path><path fill="#44a8d6" d="m155.55905 360.0l0 0c0 -179.18379 145.25717 -324.44095 324.44095 -324.44095l0 0c86.04706 0 168.56989 34.18207 229.41437 95.02655c60.844482 60.844482 95.02655 143.36731 95.02655 229.4144l0 0c0 179.18378 -145.25714 324.44092 -324.44092 324.44092l0 0c-179.18378 0 -324.44095 -145.25714 -324.44095 -324.44092z" fill-rule="evenodd"></path><path fill="#000000" fill-opacity="0.0" d="m193.77953 167.51181l572.4409 0l0 384.97635l-572.4409 0z" fill-rule="evenodd"></path><path fill="#cccccc" d="m267.59375 365.99374q5.765625 0 9.84375 -2.03125q4.078125 -2.046875 6.84375 -5.28125q2.765625 -3.234375 4.078125 -7.4375q1.328125 -4.203125 1.328125 -8.53125l0 -43.1875q0 -9.84375 2.15625 -17.515625q2.15625 -7.6875 7.4375 -12.84375q5.28125 -5.171875 14.03125 -7.921875q8.765625 -2.765625 21.734375 -2.765625l0.953125 0l0 17.515625q-13.6875 0 -19.5625 4.921875q-5.875 4.921875 -5.875 18.84375l0 36.953125q0 15.84375 -4.203125 24.484375q-4.203125 8.640625 -11.875 13.4375q7.671875 4.8125 11.875 13.453125q4.203125 8.625 4.203125 24.46875l0 36.96875q0 13.921875 5.875 18.828125q5.875 4.921875 19.5625 4.921875l0 17.53125l-0.953125 0q-12.96875 0 -21.734375 -2.640625q-8.75 -2.640625 -14.03125 -7.921875q-5.28125 -5.28125 -7.4375 -12.96875q-2.15625 -7.671875 -2.15625 -17.515625l0 -43.203125q0 -4.3125 -1.328125 -8.515625q-1.3125 -4.203125 -4.078125 -7.4375q-2.765625 -3.25 -6.84375 -5.28125q-4.078125 -2.046875 -9.84375 -2.046875l0 -17.28125zm162.48248 84.0q-17.515625 0 -31.921875 -5.75q-14.390625 -5.765625 -24.71875 -16.796875q-10.3125 -11.046875 -15.953125 -27.25q-5.640625 -16.203125 -5.640625 -37.078125q0 -20.875 6.359375 -37.078125q6.359375 -16.203125 17.15625 -27.234375q10.796875 -11.046875 25.203125 -16.796875q14.40625 -5.765625 30.71875 -5.765625q10.328125 0 18.59375 1.4375q8.28125 1.4375 14.40625 3.359375q6.125 1.921875 9.953125 3.84375q3.84375 1.921875 5.28125 2.875l-6.71875 19.203125q-2.15625 -1.4375 -6.234375 -3.109375q-4.078125 -1.6875 -9.25 -3.359375q-5.15625 -1.6875 -11.28125 -2.765625q-6.109375 -1.09375 -12.34375 -1.09375q-13.203125 0 -23.765625 4.5625q-10.5625 4.5625 -18.0 13.203125q-7.4375 8.640625 -11.40625 21.0q-3.953125 12.359375 -3.953125 27.71875q0 14.875 3.46875 27.125q3.484375 12.234375 10.4375 21.0q6.96875 8.75 17.40625 13.5625q10.453125 4.796875 24.359375 4.796875q16.09375 0 26.640625 -3.359375q10.5625 -3.359375 15.84375 -6.0l6.0 19.203125q-1.671875 1.1875 -6.0 3.0q-4.3125 1.796875 -10.796875 3.484375q-6.484375 1.671875 -15.125 2.859375q-8.640625 1.203125 -18.71875 1.203125zm110.87811 -19.90625q21.359375 0 30.59375 -8.40625q9.25 -8.40625 9.25 -22.5625q0 -9.125 -3.84375 -15.359375q-3.828125 -6.234375 -10.078125 -9.953125q-6.234375 -3.71875 -14.515625 -5.28125q-8.28125 -1.5625 -16.921875 -1.5625l-5.765625 0l0 -18.25l7.921875 0q6.0 0 12.359375 -1.1875q6.359375 -1.203125 11.640625 -4.3125q5.28125 -3.125 8.640625 -8.53125q3.359375 -5.40625 3.359375 -13.5625q0 -6.71875 -2.40625 -11.515625q-2.390625 -4.796875 -6.359375 -7.921875q-3.953125 -3.125 -9.109375 -4.4375q-5.15625 -1.328125 -10.921875 -1.328125q-11.515625 0 -19.5625 3.359375q-8.03125 3.359375 -13.5624695 6.96875l-8.640625 -17.046875q2.890625 -1.921875 7.328125 -4.203125q4.4374695 -2.28125 9.9530945 -4.1875q5.53125 -1.921875 11.890625 -3.234375q6.359375 -1.328125 13.3125 -1.328125q13.203125 0 22.796875 3.234375q9.609375 3.234375 15.84375 9.125q6.25 5.875 9.359375 13.921875q3.125 8.03125 3.125 17.390625q0 12.96875 -7.4375 22.203125q-7.4375 9.234375 -18.0 14.046875q6.46875 1.921875 12.46875 5.515625q6.0 3.59375 10.4375 9.125q4.453125 5.515625 7.203125 12.71875q2.765625 7.1875 2.765625 16.078125q0 10.796875 -3.71875 20.046875q-3.71875 9.234375 -11.53125 15.953125q-7.796875 6.71875 -19.5625 10.5625q-11.75 3.828125 -27.828125 3.828125q-6.234375 0 -12.84375 -0.953125q-6.59375 -0.953125 -12.359375 -2.40625q-5.7499695 -1.4375 -10.0780945 -2.875q-4.3125 -1.4375 -6.234375 -2.40625l4.3125 -19.4375q4.078125 1.921875 13.5624695 5.046875q9.484375 3.125 23.15625 3.125zm151.43817 -46.8125q-5.75 0 -9.828125 2.046875q-4.078125 2.03125 -6.84375 5.28125q-2.765625 3.234375 -4.09375 7.4375q-1.3125 4.203125 -1.3125 8.515625l0 43.203125q0 9.84375 -2.15625 17.515625q-2.15625 7.6875 -7.4375 12.96875q-5.28125 5.28125 -14.046875 7.921875q-8.75 2.640625 -21.71875 2.640625l-0.953125 0l0 -17.53125q13.671875 0 19.546875 -4.921875q5.890625 -4.90625 5.890625 -18.828125l0 -36.96875q0 -15.84375 4.203125 -24.46875q4.203125 -8.640625 11.875 -13.453125q-7.671875 -4.796875 -11.875 -13.4375q-4.203125 -8.640625 -4.203125 -24.484375l0 -36.953125q0 -13.921875 -5.890625 -18.84375q-5.875 -4.921875 -19.546875 -4.921875l0 -17.515625l0.953125 0q12.96875 0 21.71875 2.765625q8.765625 2.75 14.046875 7.921875q5.28125 5.15625 7.4375 12.84375q2.15625 7.671875 2.15625 17.515625l0 43.1875q0 4.328125 1.3125 8.53125q1.328125 4.203125 4.09375 7.4375q2.765625 3.234375 6.84375 5.28125q4.078125 2.03125 9.828125 2.03125l0 17.28125z" fill-rule="nonzero"></path></g></svg>

